{"title":"Supernatural Season 11 Complete S11 [720p]~{KiNg}","uid":14721738,"size":8379084663,"categoryP":"video","categoryS":"hd___tv_shows","magnet":"?xt=urn:btih:e092cfd8f4fab86dad33bffe478132fc5fdbbd13&amp;dn=Supernatural+Season+11+Complete+S11+%5B720p%5D%7E%7BKiNg%7D&amp;tr=udp%3A%2F%2Ftracker.leechers-paradise.org%3A6969&amp;tr=udp%3A%2F%2Fzer0day.ch%3A1337&amp;tr=udp%3A%2F%2Fopen.demonii.com%3A1337&amp;tr=udp%3A%2F%2Ftracker.coppersurfer.tk%3A6969&amp;tr=udp%3A%2F%2Fexodus.desync.com%3A6969","seeders":132,"leechers":52,"uploader":"Uplaoderking","files":23,"time":1464511048,"description":"Format                                   : Matroska\r\nFormat version                           : Version 4 / Version 2\r\nFile size                                : 348 MiB\r\nDuration                                 : 42mn 11s\r\nOverall bit rate                         : 1 152 Kbps\r\n\r\n\r\nVideo\r\nID                                       : 1\r\nFormat                                   : AVC\r\nFormat/Info                              : Advanced Video Codec\r\nFormat profile                           :   \r\nFormat settings, CABAC                   : Yes\r\nFormat settings, ReFrames                : 4 frames\r\nCodec ID                                 : V_MPEG4/ISO/AVC\r\nDuration                                 : 42mn 11s\r\nBit rate                                 : 1 061 Kbps\r\nWidth                                    : 1 280 pixels\r\nHeight                                   : 720 pixels\r\nDisplay aspect ratio                     : 16:9\r\nFrame rate mode                          : Constant\r\nFrame rate                               : 23.976 (24000/1001) fps\r\nColor space                              : YUV\r\nChroma subsampling                       : 4:2:0\r\nBit depth                                : 8 bits\r\nScan type                                : Progressive\r\nBits/(Pixel*Frame)                       : 0.048                                : No\r\n\r\nAudio\r\nID                                       : 2\r\nFormat                                   : AAC\r\nFormat/Info                              : Advanced Audio Codec\r\nFormat profile                           : LC\r\nCodec ID                                 : A_AAC\r\nDuration                                 : 42mn 11s\r\nBit rate                                 : 88.6 Kbps\r\nChannel(s)                               : 2 channels\r\nChannel positions                        : Front: L R\r\nSampling rate                            : 48.0 KHz\r\nFrame rate                               : 46.875 fps (1024 spf)\r\nCompression mode                         : Lossy\r\nDelay relative to video                  : 9ms\r\nStream size                              : 26.7 MiB (8%)\r\nLanguage                                 : English\r\nDefault                                  : No\r\nForced                                   : No\r\n\r\nText\r\nID                                       : 3\r\nFormat                                   : UTF-8\r\nCodec ID                                 : S_TEXT/UTF8\r\nCodec ID/Info                            : UTF-8 Plain Text\r\nDuration                                 : 41mn 45s\r\nBit rate                                 : 74 bps\r\nCount of elements                        : 754\r\nStream size                              : 22.8 KiB (0%)\r\nTitle                                    : English\r\nLanguage                                 : English\r\nDefault                                  : Yes\r\nForced                                   : No\r\n\r\n\r\nREMEMBER SEED!!!!!!!!\r\n\r\n\r\n:)","torrent":{"xt":"urn:btih:e092cfd8f4fab86dad33bffe478132fc5fdbbd13","amp;dn":"Supernatural+Season+11+Complete+S11+%5B720p%5D%7E%7BKiNg%7D","amp;tr":["udp%3A%2F%2Ftracker.leechers-paradise.org%3A6969","udp%3A%2F%2Fzer0day.ch%3A1337","udp%3A%2F%2Fopen.demonii.com%3A1337","udp%3A%2F%2Ftracker.coppersurfer.tk%3A6969","udp%3A%2F%2Fexodus.desync.com%3A6969"],"infoHash":"e092cfd8f4fab86dad33bffe478132fc5fdbbd13","infoHashBuffer":{"type":"Buffer","data":[224,146,207,216,244,250,184,109,173,51,191,254,71,129,50,252,95,219,189,19]},"announce":[],"urlList":[]}}